<svg xmlns="http://www.w3.org/2000/svg" width="30" height="30" fill="currentColor" xmlns:v="https://vecta.io/nano"><path d="M14.063 5.666C12.168 4.453 9.916 3.75 7.5 3.75a12.17 12.17 0 0 0-4.062.694.94.94 0 0 0-.625.884V23.14c0 .304.148.59.396.765a.94.94 0 0 0 .854.119c1.074-.38 2.231-.587 3.438-.587a10.27 10.27 0 0 1 6.563 2.357V5.666zm1.875 20.129c1.783-1.473 4.069-2.357 6.563-2.357 1.207 0 2.364.207 3.438.587a.94.94 0 0 0 1.25-.884V5.328a.94.94 0 0 0-.625-.884A12.17 12.17 0 0 0 22.5 3.75c-2.416 0-4.668.703-6.562 1.916v20.129z"/></svg>