<svg xmlns="http://www.w3.org/2000/svg" width="34" height="34" fill="currentColor" xmlns:v="https://vecta.io/nano"><path fill-rule="evenodd" d="M2.125 13.929v2.54c0 1.467 1.189 2.656 2.656 2.656h24.438c1.467 0 2.656-1.189 2.656-2.656v-2.54a4.25 4.25 0 0 0-1.023-2.766l-4.654-5.429a4.25 4.25 0 0 0-3.227-1.484H11.029a4.25 4.25 0 0 0-3.227 1.484l-4.654 5.429a4.25 4.25 0 0 0-1.023 2.766zm8.904-7.554c-.62 0-1.21.271-1.613.742l-3.918 4.57h4.484a4.25 4.25 0 0 1 3.536 1.893l.232.349c.394.591 1.058.946 1.768.946h2.963c.71 0 1.374-.355 1.768-.946l.232-.349a4.25 4.25 0 0 1 3.536-1.892h4.484l-3.918-4.57c-.404-.471-.993-.742-1.613-.742H11.029z"/><path d="M3.984 21.25a1.86 1.86 0 0 0-1.859 1.859V25.5a4.25 4.25 0 0 0 4.25 4.25h21.25a4.25 4.25 0 0 0 4.25-4.25v-2.391a1.86 1.86 0 0 0-1.859-1.859h-5.997a4.25 4.25 0 0 0-3.536 1.892l-.232.349c-.394.591-1.058.946-1.768.946h-2.963c-.71 0-1.374-.355-1.768-.946l-.232-.349a4.25 4.25 0 0 0-3.536-1.892H3.984z"/></svg>