<svg xmlns="http://www.w3.org/2000/svg" width="34" height="34" fill="currentColor" xmlns:v="https://vecta.io/nano"><path d="M17 1.063A11.69 11.69 0 0 0 5.313 12.75c0 4.322 2.346 8.095 5.83 10.116.971.563 1.579 1.428 1.607 2.298.015.48.35.89.818 1 .498.118 1.005.21 1.52.276.459.059.851-.308.851-.77v-6.603a9.51 9.51 0 0 1-1.327-.243c-.568-.146-.91-.726-.764-1.294s.726-.91 1.294-.764c.593.153 1.216.234 1.86.234s1.267-.081 1.86-.234c.568-.146 1.148.196 1.294.764s-.196 1.148-.764 1.294a9.51 9.51 0 0 1-1.327.243v6.603c0 .462.392.83.851.771.515-.066 1.022-.159 1.52-.276.467-.11.802-.521.818-1 .027-.87.636-1.735 1.607-2.298 3.483-2.021 5.83-5.794 5.83-10.116A11.69 11.69 0 0 0 17 1.063z"/><path d="M12.769 28.191c.109-.576.665-.955 1.242-.846a16.08 16.08 0 0 0 2.989.28c1.022 0 2.022-.096 2.989-.28.576-.109 1.133.269 1.242.846s-.269 1.133-.846 1.242a18.15 18.15 0 0 1-6.771 0c-.576-.109-.955-.665-.846-1.242zm1.049 3.463a1.06 1.06 0 0 1 1.167-.946 19.43 19.43 0 0 0 2.015.105c.681 0 1.353-.035 2.015-.105.584-.061 1.106.363 1.167.946s-.363 1.106-.946 1.167a21.48 21.48 0 0 1-4.471 0 1.06 1.06 0 0 1-.946-1.167z" fill-rule="evenodd"/></svg>