<svg xmlns="http://www.w3.org/2000/svg" width="30" height="30" fill="none" xmlns:v="https://vecta.io/nano"><g clip-path="url(#A)" fill="currentColor"><path d="M24.658 14.019l-.005 2.239c-.01.403.105.758.316 1.092.542.876 1.26 1.609 1.987 2.332l.838.777c.14.123.206.251.206.443l-.005 2.46c.005.684-.296 1.196-.923 1.481-.642.29-1.245.167-1.772-.28l-3.257-2.809-2.223-1.909c-.266-.221-.582-.384-.888-.551a2.8 2.8 0 0 0-1.465-.359c-.381.015-.773.02-1.154-.01-.557-.044-.953-.423-1.029-.945-.07-.457.206-.95.668-1.127a1.55 1.55 0 0 1 .562-.098l4.341-.005c.542 0 .738-.192.738-.728v-3.247a1.26 1.26 0 0 0-.457-1.018l-5.45-4.832c-.487-.433-.542-1.073-.136-1.54s1.059-.512 1.576-.118l6.976 5.304c.386.29.567.645.562 1.112l-.005 2.337zM1.005 22.205L1 20.877c-.005-.172.065-.285.181-.403l2.248-2.312c.156-.162.271-.354.407-.531a2.48 2.48 0 0 0 .507-1.609l-.015-4.231c-.01-.556.191-.95.647-1.294l6.916-5.25c.482-.369 1.144-.31 1.536.133.401.453.366 1.102-.1 1.525l-2.138 1.899L7.8 11.805c-.266.236-.396.521-.396.866v3.444c0 .423.221.63.657.63l4.467.005c.703 0 1.194.482 1.179 1.132a1.05 1.05 0 0 1-.883 1.018c-.301.044-.617.064-.924.034-1.029-.098-1.897.271-2.665.871l-2.263 1.933-3.297 2.839c-.893.763-2.213.428-2.595-.659-.05-.138-.065-.29-.07-.433l-.005-1.279zm14.207-7.168v.699h-1.26v-.566c.005-.138-.035-.197-.181-.231a2.9 2.9 0 0 1-1.164-.551l.652-.851c.381.143.728.31 1.094.394.266.059.562.02.838-.025.211-.034.346-.197.361-.418.02-.226-.1-.384-.301-.463l-1.044-.339-.758-.261a1.34 1.34 0 0 1-.898-1.299c-.015-.659.236-1.191.838-1.476.391-.187.728-.325.532-.871l1.174.01c.04 0 .11.123.11.192.025.418.025.408.422.546.231.079.452.192.703.305l-.572.866c-.03.039-.151.034-.221.015l-.984-.256c-.13-.025-.281.015-.417.049-.201.054-.336.187-.351.403a.42.42 0 0 0 .276.453c.256.103.517.182.778.266l.858.266c.798.305 1.119.787 1.079 1.579-.04.728-.497 1.269-1.25 1.481a3.8 3.8 0 0 1-.316.084z"/></g><defs><clipPath id="A"><path fill="#fff" transform="translate(1 5)" d="M0 0h27v20H0z"/></clipPath></defs></svg>