<svg xmlns="http://www.w3.org/2000/svg" width="30" height="30" fill="currentColor" xmlns:v="https://vecta.io/nano"><path d="M15 9.375c-1.553 0-2.812 1.259-2.812 2.813S13.447 15 15 15s2.813-1.259 2.813-2.812S16.553 9.375 15 9.375z"/><path fill-rule="evenodd" d="M1.875 6.094c0-1.294 1.049-2.344 2.344-2.344h21.562c1.295 0 2.344 1.049 2.344 2.344v12.188c0 1.294-1.049 2.344-2.344 2.344H4.219c-1.294 0-2.344-1.049-2.344-2.344V6.094zm8.438 6.094A4.69 4.69 0 0 1 15 7.5a4.69 4.69 0 0 1 4.688 4.688A4.69 4.69 0 0 1 15 16.875a4.69 4.69 0 0 1-4.687-4.687zm13.125-.937a.94.94 0 0 0-.937.938v.009a.94.94 0 0 0 .938.938h.009a.94.94 0 0 0 .938-.937v-.009a.94.94 0 0 0-.937-.937h-.009zm-17.812.938a.94.94 0 0 1 .938-.937h.009a.94.94 0 0 1 .938.938v.009a.94.94 0 0 1-.937.938h-.009a.94.94 0 0 1-.937-.937v-.009z"/><path d="M2.813 22.5a.94.94 0 0 0-.937.938.94.94 0 0 0 .938.938c6.75 0 13.288.903 19.5 2.594 1.488.405 3-.698 3-2.275v-1.256a.94.94 0 0 0-.937-.937H2.813z"/></svg>