<svg xmlns="http://www.w3.org/2000/svg" width="30" height="30" fill="currentColor" fill-rule="evenodd" xmlns:v="https://vecta.io/nano"><path d="M3.75 2.813a.94.94 0 0 0-.937.938.94.94 0 0 0 .938.938v20.625h-.937a.94.94 0 0 0-.937.938.94.94 0 0 0 .938.938H18.75V4.69a.94.94 0 0 0 .938-.937.94.94 0 0 0-.937-.937h-15zm4.688 21.563v-2.812a.94.94 0 0 1 .938-.937h3.75a.94.94 0 0 1 .938.938v2.813a.94.94 0 0 1-.937.938h-3.75a.94.94 0 0 1-.937-.937zM7.5 8.438a.94.94 0 0 1 .938-.937h.938a.94.94 0 0 1 .938.938.94.94 0 0 1-.937.938H8.44a.94.94 0 0 1-.937-.937zm.938 2.813a.94.94 0 0 0-.937.938.94.94 0 0 0 .938.938h.938a.94.94 0 0 0 .938-.937.94.94 0 0 0-.937-.937h-.937zM7.5 15.938A.94.94 0 0 1 8.438 15h.938a.94.94 0 0 1 .938.938.94.94 0 0 1-.937.938H8.44a.94.94 0 0 1-.937-.937zM13.125 7.5a.94.94 0 0 0-.937.938.94.94 0 0 0 .938.938h.938A.94.94 0 0 0 15 8.438a.94.94 0 0 0-.937-.937h-.937zm-.937 4.688a.94.94 0 0 1 .938-.937h.938a.94.94 0 0 1 .938.938.94.94 0 0 1-.937.938h-.937a.94.94 0 0 1-.937-.937zM13.125 15a.94.94 0 0 0-.937.938.94.94 0 0 0 .938.938h.938a.94.94 0 0 0 .938-.937.94.94 0 0 0-.937-.937h-.937zm7.5-6.562v18.75h6.563a.94.94 0 0 0 .938-.937.94.94 0 0 0-.937-.937h-.937v-15a.94.94 0 0 0 .938-.937.94.94 0 0 0-.937-.937h-5.625zm1.875 5.625a.94.94 0 0 1 .938-.937h.009a.94.94 0 0 1 .938.938v.009a.94.94 0 0 1-.937.938h-.009a.94.94 0 0 1-.937-.937v-.009zm.938 2.813a.94.94 0 0 0-.937.938v.009a.94.94 0 0 0 .938.938h.009a.94.94 0 0 0 .938-.937v-.009a.94.94 0 0 0-.937-.937h-.009zm-.937 4.688a.94.94 0 0 1 .938-.937h.009a.94.94 0 0 1 .938.938v.009a.94.94 0 0 1-.937.938h-.009a.94.94 0 0 1-.937-.937v-.009z"/></svg>