<svg xmlns="http://www.w3.org/2000/svg" width="30" height="30" fill="currentColor" xmlns:v="https://vecta.io/nano"><path d="M14.48 2.97c.315-.21.725-.21 1.04 0l11.25 7.5a.94.94 0 0 1 .26 1.3.94.94 0 0 1-1.3.26L15 4.877 4.27 12.03a.94.94 0 0 1-1.3-.26.94.94 0 0 1 .26-1.3l11.25-7.5z"/><path fill-rule="evenodd" d="M25.313 12.916v12.397h.938a.94.94 0 0 1 .938.938.94.94 0 0 1-.937.938H3.75a.94.94 0 0 1-.937-.937.94.94 0 0 1 .938-.937h.938V12.916a.94.94 0 0 1 .792-.926c3.103-.487 6.282-.739 9.52-.739s6.418.253 9.52.739a.94.94 0 0 1 .792.926zm-9.375 3.022A.94.94 0 0 0 15 15a.94.94 0 0 0-.937.938v8.438a.94.94 0 0 0 .938.938.94.94 0 0 0 .938-.937v-8.437zm3.75-.937a.94.94 0 0 1 .938.938v8.438a.94.94 0 0 1-.937.938.94.94 0 0 1-.937-.937v-8.437a.94.94 0 0 1 .938-.937zm-8.437.938a.94.94 0 0 0-.937-.937.94.94 0 0 0-.937.938v8.438a.94.94 0 0 0 .938.938.94.94 0 0 0 .938-.937v-8.437z"/><path d="M15 9.844c.777 0 1.406-.63 1.406-1.406S15.777 7.031 15 7.031s-1.406.63-1.406 1.406.63 1.406 1.406 1.406z"/></svg>