<svg xmlns="http://www.w3.org/2000/svg" width="30" height="30" fill="currentColor" xmlns:v="https://vecta.io/nano"><path d="M13.08 10.933a2.81 2.81 0 0 1 .983-.492v3.494c-.368-.105-.705-.271-.983-.492-.492-.391-.683-.851-.683-1.255s.19-.864.683-1.255zm2.858 8.644v-3.529a3.17 3.17 0 0 1 1.152.526c.533.4.723.857.723 1.239s-.19.839-.723 1.239c-.322.241-.718.42-1.152.526z"/><path fill-rule="evenodd" d="M15 2.813A12.19 12.19 0 0 0 2.813 15 12.19 12.19 0 0 0 15 27.188 12.19 12.19 0 0 0 27.188 15 12.19 12.19 0 0 0 15 2.813zm.938 4.688A.94.94 0 0 0 15 6.563a.94.94 0 0 0-.937.938v1.02c-.784.139-1.531.454-2.149.945-.89.707-1.391 1.687-1.391 2.723s.501 2.015 1.391 2.723c.628.499 1.378.809 2.149.945v3.721c-.434-.105-.829-.284-1.151-.526l-1.099-.824a.94.94 0 0 0-1.312.188.94.94 0 0 0 .188 1.313l1.099.824c.667.5 1.461.806 2.276.937V22.5a.94.94 0 0 0 .938.938.94.94 0 0 0 .938-.937v-1.012c.815-.131 1.61-.437 2.277-.937.931-.699 1.473-1.681 1.473-2.739s-.542-2.04-1.473-2.739c-.667-.5-1.462-.806-2.277-.937v-3.696c.361.103.699.267.983.492l.519.412a.94.94 0 0 0 1.317-.151.94.94 0 0 0-.151-1.317l-.519-.412c-.618-.491-1.365-.806-2.149-.945V7.5z"/></svg>