<svg xmlns="http://www.w3.org/2000/svg" width="30" height="30" fill="none" xmlns:v="https://vecta.io/nano"><g clip-path="url(#A)" fill="currentColor"><path d="M17.692 6.878c.033.038.038.049.044.049.544.077.797.484 1.089.891a8.19 8.19 0 0 0 1.166 1.27c1.127 1.017 1.82 2.249 2.051 3.75.401 2.628-1.105 5.328-3.58 6.379-3.756 1.595-7.951-.83-8.386-4.888-.231-2.161.561-3.948 2.211-5.356a6.64 6.64 0 0 0 1.347-1.584c.066-.11.187-.198.302-.253.187-.088.396-.137.632-.22l-.193-.225-1.111-1.138c-.132-.132-.193-.269-.187-.456l.006-2.337c0-.313.385-.814.698-.874l1.083-.181c.104-.022.22-.088.281-.17.522-.704 1.441-.709 1.958-.011.071.093.209.165.324.192l1.001.17c.335.066.693.5.693.841l.006 2.364a.62.62 0 0 1-.198.484l-1.237 1.303zm-2.309 3.063c-.016.066-.033.104-.027.137.072.368-.099.528-.44.665-.649.269-.94.814-.924 1.512.017.693.39 1.122 1.017 1.347l.836.264.748.264c.203.082.319.242.297.473s-.171.374-.379.412c-.215.044-.445.082-.649.033-.396-.094-.775-.253-1.193-.396l-.66.874 1.083.467c.203.066.286.154.258.363-.017.148-.005.302-.005.473h.841c.379 0 .396 0 .374-.39-.011-.242.044-.374.308-.407.137-.017.275-.093.401-.165.583-.319.825-.83.814-1.479a1.35 1.35 0 0 0-.869-1.287c-.247-.11-.511-.192-.775-.28l-.99-.33c-.203-.077-.286-.242-.269-.462.017-.209.143-.352.335-.385.231-.038.478-.06.704-.022.275.05.533.176.825.275l.588-.924c-.253-.116-.467-.258-.698-.297-.324-.055-.423-.203-.385-.511.011-.071-.088-.214-.149-.22l-1.017-.005zm.297 19.048c-1.171 0-2.348-.033-3.519.011-.786.027-1.457-.209-2.089-.627-.896-.599-1.716-1.281-2.431-2.095l-3.178-3.613c-.863-.99-.473-2.452.759-2.854.143-.049.308-.066.456-.066l2.942.006a.64.64 0 0 1 .401.165l1.985 1.98c.132.132.253.159.44.132.396-.06.803-.115 1.204-.115l5.554-.005c.632 0 1.1.324 1.265.863.253.814-.341 1.578-1.248 1.584h-3.684c-.22 0-.44-.006-.66 0-.396.011-.654.264-.66.621 0 .363.258.638.649.638h5.856c.396 0 .682-.22.957-.484l3.833-3.673c.522-.5 1.215-.522 1.71-.077.533.484.544 1.265.005 1.809l-1.716 1.677-3.789 3.673a1.48 1.48 0 0 1-1.083.451c-1.32-.006-2.639 0-3.959 0zM9.136 5.751l1.589 1.589-1.006 1.001-1.551-1.6.968-.99zm13.884 0l.973.984-1.595 1.589-.99-1.001 1.611-1.573zm1.265 8.666l.006-1.325c0-.055.104-.154.159-.154h2.007c.055 0 .159.082.159.126l.006 1.353h-2.337zm-16.43.017c-.759 0-1.468.005-2.183-.005-.055 0-.143-.104-.148-.165v-1.155c0-.06.11-.17.17-.17h1.98c.06 0 .17.088.17.143l.011 1.353z"/></g><defs><clipPath id="A"><path fill="#fff" transform="translate(4 1)" d="M0 0h22.628v28H0z"/></clipPath></defs></svg>