<svg xmlns="http://www.w3.org/2000/svg" width="34" height="34" fill="currentColor" xmlns:v="https://vecta.io/nano"><path d="M16.496 2.252a1.06 1.06 0 0 1 1.007 0L31.316 9.69a1.06 1.06 0 0 1 0 1.871l-13.812 7.438c-.314.169-.693.169-1.007 0L2.684 11.561a1.06 1.06 0 0 1 0-1.871l13.813-7.438zM4.625 15.019l10.864 5.85a3.19 3.19 0 0 0 3.022 0l10.864-5.85 1.941 1.045a1.06 1.06 0 0 1 0 1.871l-13.812 7.438c-.314.169-.693.169-1.007 0L2.684 17.936a1.06 1.06 0 0 1 0-1.871l1.941-1.045z"/><path d="M15.489 27.244l-10.864-5.85-1.941 1.045a1.06 1.06 0 0 0 0 1.871l13.813 7.438c.314.169.693.169 1.007 0l13.813-7.437a1.06 1.06 0 0 0 0-1.871l-1.941-1.045-10.864 5.85a3.19 3.19 0 0 1-3.022 0z"/></svg>