<svg xmlns="http://www.w3.org/2000/svg" width="34" height="34" fill="currentColor" fill-rule="evenodd" xmlns:v="https://vecta.io/nano"><path d="M12.75 6.375c.474 0 .891.314 1.022.771l1.152 4.032c.504 1.765 1.884 3.144 3.649 3.649l4.032 1.152c.456.13.771.547.771 1.022a1.06 1.06 0 0 1-.771 1.022l-4.032 1.152c-1.765.504-3.144 1.884-3.649 3.649l-1.152 4.032c-.13.456-.547.771-1.022.771a1.06 1.06 0 0 1-1.022-.771l-1.152-4.032c-.504-1.765-1.884-3.144-3.649-3.649l-4.032-1.152c-.456-.13-.771-.547-.771-1.022a1.06 1.06 0 0 1 .771-1.022l4.032-1.152c1.765-.504 3.144-1.884 3.649-3.649l1.152-4.032c.13-.456.547-.771 1.022-.771zm12.75-4.25a1.06 1.06 0 0 1 1.031.805l.367 1.467a3.72 3.72 0 0 0 2.706 2.706l1.467.367a1.06 1.06 0 0 1 .805 1.031 1.06 1.06 0 0 1-.805 1.031l-1.467.367a3.72 3.72 0 0 0-2.706 2.706l-.367 1.467a1.06 1.06 0 0 1-1.031.805 1.06 1.06 0 0 1-1.031-.805l-.367-1.467a3.72 3.72 0 0 0-2.706-2.706l-1.467-.367a1.06 1.06 0 0 1-.805-1.031 1.06 1.06 0 0 1 .805-1.031l1.467-.367a3.72 3.72 0 0 0 2.706-2.706l.367-1.467a1.06 1.06 0 0 1 1.031-.805zM23.375 21.25c.457 0 .863.293 1.008.727l.559 1.675a2.12 2.12 0 0 0 1.344 1.344l1.675.559c.434.145.727.551.727 1.008s-.293.863-.727 1.008l-1.675.559a2.12 2.12 0 0 0-1.344 1.344l-.559 1.675c-.145.434-.551.727-1.008.727s-.863-.293-1.008-.727l-.559-1.675a2.12 2.12 0 0 0-1.344-1.344l-1.675-.559c-.434-.145-.727-.551-.727-1.008s.293-.863.727-1.008l1.675-.559a2.12 2.12 0 0 0 1.344-1.344l.559-1.675c.145-.434.551-.727 1.008-.727z"/></svg>