<svg xmlns="http://www.w3.org/2000/svg" width="24" height="24" viewBox="0 0 20 20" xmlns:v="https://vecta.io/nano" fill='currentColor'><path d="M19.822 8.004h-9.61l-.006 3.998h5.569c-.213.999-.97 2.399-2.039 3.103-1.425.943-3.301 1.156-4.694.877-2.183-.434-3.911-2.017-4.612-4.028.004-.003.007-.031.01-.033C4 10.673 4 9.003 4.439 8.004h-.001c.566-1.837 2.345-3.513 4.531-3.972 1.758-.373 3.742.031 5.201 1.396l2.872-2.82C12.058-1.907 4.077-.318 1.09 5.511h-.001l-.005.011c-1.477 2.863-1.416 6.237.01 8.964 1.282 2.517 3.635 4.441 6.469 5.173 3.011.79 6.843.25 9.41-2.072 2.178-1.956 3.532-5.293 2.848-9.584" fill-rule="evenodd"/></svg>