<svg xmlns="http://www.w3.org/2000/svg" width="30" height="30" fill="none" xmlns:v="https://vecta.io/nano"><path fill-rule="evenodd" d="M2.813 2.813a.94.94 0 0 0-.937.938.94.94 0 0 0 .938.938h.938v13.125a3.75 3.75 0 0 0 3.75 3.75h1.512l-1.464 4.391a.94.94 0 0 0 .593 1.186.94.94 0 0 0 1.186-.593l.411-1.234h10.524l.411 1.234a.94.94 0 0 0 1.186.593.94.94 0 0 0 .593-1.186l-1.464-4.391H22.5a3.75 3.75 0 0 0 3.75-3.75V4.688h.938a.94.94 0 0 0 .938-.937.94.94 0 0 0-.937-.937H2.813zm7.551 20.625l.625-1.875h8.024l.625 1.875h-9.274zm9.324-15a.94.94 0 0 0-.937-.937.94.94 0 0 0-.937.938v7.5a.94.94 0 0 0 .938.938.94.94 0 0 0 .938-.937v-7.5zm-3.75 2.813a.94.94 0 0 0-.937-.937.94.94 0 0 0-.937.938v4.688a.94.94 0 0 0 .938.938.94.94 0 0 0 .938-.937V11.25zm-3.75 2.813a.94.94 0 0 0-.937-.937.94.94 0 0 0-.937.938v1.875a.94.94 0 0 0 .938.938.94.94 0 0 0 .938-.937v-1.875z" fill="currentColor"/></svg>