<svg xmlns="http://www.w3.org/2000/svg" fill="currentColor" height="800" width="800" viewBox="0 0 512 512" xmlns:v="https://vecta.io/nano"><path d="M148.57 63.619H72.162C32.31 63.619 0 95.929 0 135.781v76.408c0 39.852 32.31 72.161 72.162 72.161h7.559a19.26 19.26 0 0 1 15.87 8.362c3.579 5.234 4.365 11.898 2.074 17.811L54.568 422.208a19.24 19.24 0 0 0 2.074 17.81 19.26 19.26 0 0 0 15.87 8.362h50.738c7.157 0 13.73-3.981 17.041-10.318l61.257-117.03a168.37 168.37 0 0 0 19.198-78.072V135.78c.002-39.851-32.324-72.161-72.176-72.161zm291.27 0h-76.41c-39.852 0-72.16 32.31-72.16 72.162v76.408c0 39.852 32.309 72.161 72.16 72.161h7.543c6.338 0 12.291 3.128 15.87 8.362a19.25 19.25 0 0 1 2.091 17.811l-43.113 111.686c-2.291 5.92-1.505 12.584 2.09 17.81 3.579 5.234 9.516 8.362 15.871 8.362h50.722c7.157 0 13.73-3.981 17.058-10.318l61.24-117.03A168.37 168.37 0 0 0 512 242.96V135.78c0-39.851-32.309-72.161-72.16-72.161z"/></svg>