<svg width="26" height="23" viewBox="0 0 26 23" fill="none" xmlns="http://www.w3.org/2000/svg">
<path d="M13 5.75C11.5503 5.75 10.375 6.92525 10.375 8.375C10.375 9.82475 11.5503 11 13 11C14.4497 11 15.625 9.82475 15.625 8.375C15.625 6.92525 14.4497 5.75 13 5.75Z" fill="#CAFF33"/>
<path fill-rule="evenodd" clip-rule="evenodd" d="M0.75 2.6875C0.75 1.47938 1.72938 0.5 2.9375 0.5H23.0625C24.2706 0.5 25.25 1.47938 25.25 2.6875V14.0625C25.25 15.2706 24.2706 16.25 23.0625 16.25H2.9375C1.72938 16.25 0.75 15.2706 0.75 14.0625V2.6875ZM8.625 8.375C8.625 5.95875 10.5838 4 13 4C15.4162 4 17.375 5.95875 17.375 8.375C17.375 10.7912 15.4162 12.75 13 12.75C10.5838 12.75 8.625 10.7912 8.625 8.375ZM20.875 7.5C20.3918 7.5 20 7.89175 20 8.375V8.38375C20 8.867 20.3918 9.25875 20.875 9.25875H20.8838C21.367 9.25875 21.7588 8.867 21.7588 8.38375V8.375C21.7588 7.89175 21.367 7.5 20.8838 7.5H20.875ZM4.25 8.375C4.25 7.89175 4.64175 7.5 5.125 7.5H5.13375C5.617 7.5 6.00875 7.89175 6.00875 8.375V8.38375C6.00875 8.867 5.617 9.25875 5.13375 9.25875H5.125C4.64175 9.25875 4.25 8.867 4.25 8.38375V8.375Z" fill="#CAFF33"/>
<path d="M1.625 18C1.14175 18 0.75 18.3918 0.75 18.875C0.75 19.3582 1.14175 19.75 1.625 19.75C7.92506 19.75 14.0269 20.5926 19.8247 22.1707C21.2137 22.5488 22.625 21.5196 22.625 20.0476V18.875C22.625 18.3918 22.2332 18 21.75 18H1.625Z" fill="#CAFF33"/>
</svg>
