<svg width="26" height="22" viewBox="0 0 26 22" fill="none" xmlns="http://www.w3.org/2000/svg">
<path d="M11.2536 14.4435C10.4674 14.4435 10.0069 14.001 10.0069 13.2068V12.2877C6.70497 12.0608 3.41426 11.3801 0 10.0752V8.20319C4.20043 10.0639 8.41209 10.722 12.9944 10.722C17.5879 10.722 21.7996 10.0639 26 8.20319V10.0752C22.5857 11.3801 19.295 12.0608 15.9931 12.2877V13.2068C15.9931 14.001 15.5326 14.4435 14.7464 14.4435H11.2536ZM3.47041 21.9886H22.5296C24.8544 21.9886 26 20.854 26 18.5281V7.48839C26 5.16244 24.8544 4.02785 22.5296 4.02785H3.47041C1.1568 4.02785 0 5.16244 0 7.48839V18.5281C0 20.854 1.1568 21.9886 3.47041 21.9886ZM7.30022 5.01495H9.04104V3.0067C9.04104 2.1444 9.54644 1.65652 10.4225 1.65652H15.5775C16.4536 1.65652 16.9477 2.1444 16.9477 3.0067V4.99225H18.6886V3.13151C18.6886 0.998451 17.5766 0 15.5439 0H10.4449C8.52441 0 7.30022 0.998451 7.30022 3.13151V5.01495Z" fill="#CAFF33"/>
</svg>
