<svg width="26" height="22" viewBox="0 0 26 22" fill="none" xmlns="http://www.w3.org/2000/svg">
<path d="M2.9375 0.5C1.72938 0.5 0.75 1.47938 0.75 2.6875V3.5625C0.75 4.77062 1.72938 5.75 2.9375 5.75H23.0625C24.2706 5.75 25.25 4.77062 25.25 3.5625V2.6875C25.25 1.47938 24.2706 0.5 23.0625 0.5H2.9375Z" fill="#CAFF33"/>
<path fill-rule="evenodd" clip-rule="evenodd" d="M2.60126 7.5L3.23099 18.2055C3.33982 20.0555 4.87179 21.5 6.72495 21.5H19.2747C21.1279 21.5 22.6598 20.0555 22.7687 18.2055L23.3984 7.5H2.60126ZM13 9.25C13.4832 9.25 13.875 9.64175 13.875 10.125V15.8876L15.8813 13.8813C16.223 13.5396 16.777 13.5396 17.1187 13.8813C17.4604 14.223 17.4604 14.777 17.1187 15.1187L13.6187 18.6187C13.277 18.9604 12.723 18.9604 12.3813 18.6187L8.88128 15.1187C8.53957 14.777 8.53957 14.223 8.88128 13.8813C9.22299 13.5396 9.77701 13.5396 10.1187 13.8813L12.125 15.8876V10.125C12.125 9.64175 12.5168 9.25 13 9.25Z" fill="#CAFF33"/>
</svg>
